<svg width="17" height="17" viewBox="0 0 17 17" fill="none" xmlns="http://www.w3.org/2000/svg">
<path fill-rule="evenodd" clip-rule="evenodd" d="M0.66307 17C0.488552 17 0.318743 16.9305 0.193405 16.8044C0.0377519 16.6486 -0.0296368 16.4254 0.0121426 16.2089L0.741902 12.4529C0.767508 12.3234 0.830846 12.2041 0.923837 12.1103L12.8291 0.194239C13.0885 -0.0647462 13.509 -0.0647462 13.7677 0.194239L16.8059 3.23524C16.9299 3.36001 17 3.52862 17 3.70466C17 3.88068 16.9299 4.04997 16.8059 4.17407L4.90071 16.0908C4.80637 16.1846 4.68576 16.2486 4.55504 16.2736L0.786959 16.9885C0.745856 16.9959 0.704173 17 0.66307 17ZM2.00601 12.9061L1.50131 15.5007L4.10692 15.0063L15.3982 3.70471L13.2986 1.60313L2.00601 12.9061Z" fill="#ABB2C9"/>
<path fill-rule="evenodd" clip-rule="evenodd" d="M14.0802 6.6271C13.9104 6.6271 13.7406 6.56236 13.6112 6.43286L10.573 3.39186C10.3142 3.13288 10.3142 2.71203 10.573 2.45304C10.8324 2.19339 11.2522 2.19339 11.511 2.45304L14.5492 5.49404C14.8086 5.75303 14.8086 6.17388 14.5492 6.43286C14.4198 6.56236 14.25 6.6271 14.0802 6.6271Z" fill="#ABB2C9"/>
</svg>
