<svg width="16" height="18" viewBox="0 0 16 18" fill="none" xmlns="http://www.w3.org/2000/svg">
<path d="M12.307 11.6123C11.5412 11.6123 10.8472 11.9248 10.3458 12.4283L6.24142 9.88629C6.33593 9.60787 6.38766 9.30987 6.38766 8.99998C6.38766 8.69001 6.33593 8.392 6.24143 8.11366L10.3458 5.57154C10.8472 6.07505 11.5412 6.38766 12.307 6.38766C13.8339 6.38766 15.0759 5.1457 15.0759 3.61877C15.0759 2.09183 13.8339 0.85 12.307 0.85C10.7801 0.85 9.53809 2.09196 9.53809 3.61889C9.53809 3.92882 9.58993 4.22681 9.68436 4.50518L5.58011 7.04722C5.07868 6.5437 4.38464 6.23109 3.61889 6.23109C2.09196 6.23109 0.85 7.47318 0.85 8.99998C0.85 10.5269 2.09196 11.7689 3.61889 11.7689C4.38463 11.7689 5.07868 11.4564 5.58012 10.9528L9.68436 13.4948C9.58993 13.7732 9.53809 14.0712 9.53809 14.3812C9.53809 15.908 10.7801 17.15 12.307 17.15C13.8339 17.15 15.0759 15.908 15.0759 14.3812C15.0759 12.8543 13.8339 11.6123 12.307 11.6123ZM10.793 3.61889C10.793 2.78426 11.4723 2.10495 12.307 2.10495C13.1416 2.10495 13.8209 2.78426 13.8209 3.61889C13.8209 4.45353 13.1416 5.13283 12.307 5.13283C11.4723 5.13283 10.793 4.45353 10.793 3.61889ZM3.61889 10.5139C2.78413 10.5139 2.10483 9.83461 2.10483 8.99998C2.10483 8.16535 2.78413 7.48605 3.61889 7.48605C4.45351 7.48605 5.13271 8.16533 5.13271 8.99998C5.13271 9.83463 4.45351 10.5139 3.61889 10.5139ZM10.793 14.3811C10.793 13.5464 11.4723 12.8671 12.307 12.8671C13.1416 12.8671 13.8209 13.5464 13.8209 14.3811C13.8209 15.2157 13.1416 15.895 12.307 15.895C11.4723 15.895 10.793 15.2157 10.793 14.3811Z" fill="#ACB4CB" stroke="#ACB4CB" stroke-width="0.3"/>
</svg>
