<svg width="15" height="16" viewBox="0 0 15 16" fill="none" xmlns="http://www.w3.org/2000/svg">
<path d="M10.2767 0.571411H6.85531C5.71414 0.571411 4.62853 1.06641 3.88117 1.92915C3.13305 2.79119 2.79625 3.9358 2.95726 5.06584L2.96429 5.12771C2.32938 5.2585 1.75914 5.60373 1.34921 6.10576C0.939294 6.6078 0.714996 7.23568 0.714294 7.88397V8.75022C0.715701 9.57077 0.99414 10.366 1.5046 11.008C2.01577 11.6499 2.72804 12.1006 3.52672 12.287V14.634C3.52672 15.5656 4.28258 16.3215 5.21422 16.3215H11.4017C12.3334 16.3215 13.0892 15.5656 13.0892 14.634V11.8215V11.8088C13.7952 11.2815 14.2121 10.4525 14.2142 9.57142V4.50891C14.2128 3.46476 13.798 2.46428 13.0597 1.72592C12.3214 0.987633 11.3209 0.572833 10.2767 0.571411ZM11.9642 12.3839V13.5089H9.71425C9.40346 13.5089 9.15175 13.7606 9.15175 14.0714C9.15175 14.3822 9.40346 14.6339 9.71425 14.6339H11.9642C11.9642 14.783 11.9052 14.9264 11.7997 15.0319C11.6942 15.1374 11.5508 15.1964 11.4018 15.1964H5.21425C4.90347 15.1964 4.65176 14.9447 4.65176 14.6339V12.3839L11.9642 12.3839ZM13.0892 9.57143C13.0892 10.5031 12.3334 11.2589 11.4017 11.2589H4.34791C2.96275 11.2575 1.84051 10.1353 1.83907 8.75009V7.88384C1.84118 7.10758 2.37273 6.43328 3.12648 6.24907L3.53218 9.08822C3.57648 9.39548 3.86124 9.60993 4.16922 9.56563C4.47648 9.52134 4.69023 9.23658 4.64593 8.9286L4.07148 4.90667C3.95617 4.09947 4.19664 3.28175 4.73102 2.66584C5.2654 2.04994 6.04023 1.69623 6.8552 1.69623H10.2766C11.0219 1.69694 11.737 1.99365 12.2644 2.521C12.7917 3.04834 13.0884 3.76341 13.0891 4.50874L13.0892 9.57143Z" fill="#ABB3CA"/>
</svg>
