<?xml version="1.0" encoding="UTF-8"?>
<svg width="100pt" height="100pt" version="1.1" viewBox="0 0 100 100" xmlns="http://www.w3.org/2000/svg">
 <g fill="#ff001b">
  <path d="m50 12.699c3.3008 0 6.5 2.3984 9.3984 7l28.801 52.898 0.10156 0.19922 0.19922 0.19922c1.6992 2.5 2.3984 4.3008 2.3984 6.3008 0 4.5-3.8008 7.8984-8.8984 7.8984l-64 0.003907c-5.1016 0-8.8984-3.3984-8.8984-7.8984 0-2 0.69922-3.8008 2.3984-6.3008l0.19922-0.19922 0.10156-0.19922 28.801-52.898c2.8984-4.6016 6.0977-7.0039 9.3984-7.0039m0-5c-5.1992 0-9.8984 3.1992-13.699 9.5l-28.898 53c-2.1992 3.1992-3.3008 6-3.3008 9.1992 0 7.3984 6.3008 12.898 13.898 12.898h64c7.6992 0 13.898-5.3984 13.898-12.898 0-3.1992-1.1992-6-3.3008-9.1992l-28.898-53c-3.8008-6.3008-8.5-9.5-13.699-9.5z"/>
  <path d="m45.398 32.801c-0.10156-1.3008 0.39844-2.5 1.3008-3.5 1.8008-1.8008 4.8008-1.8008 6.6016 0 1 1 1.5 2.3984 1.3008 3.8008v0.30078l-3 28.102c-0.10156 0.89453-0.80078 1.4961-1.6016 1.4961-0.69922 0-1.3984-0.80078-1.5-1.5l-3.1992-28.102c0-0.19922 0-0.39844 0.097657-0.59766z"/>
  <path d="m54.699 71.398c0 6.2695-9.3984 6.2695-9.3984 0 0-6.2656 9.3984-6.2656 9.3984 0"/>
 </g>
</svg>
