<svg width="17" height="12" viewBox="0 0 17 12" fill="none" xmlns="http://www.w3.org/2000/svg">
<path d="M7.22944 1C5.02164 1 3.42001 2.81644 3.30273 4.80323C1.96589 5.26128 1 6.53458 1 8.04197C1 9.93235 2.51787 11.4722 4.3813 11.4722H12.9243C14.8892 11.4722 16.3056 10.1037 16.3056 8.40263C16.3056 7.06436 15.4434 5.76866 14.1364 5.407C14.0514 4.36216 13.5458 3.55696 12.8404 3.12804C12.1604 2.71369 11.3248 2.64202 10.5708 2.91415C9.92945 1.848 8.75598 1.00138 7.22823 1.00138L7.22944 1ZM7.22944 1.72232C8.61152 1.72232 9.63814 2.53534 10.1162 3.50519V3.50407C10.1581 3.5903 10.2321 3.65637 10.3215 3.68773C10.412 3.71796 10.5092 3.71124 10.5942 3.66869C11.1947 3.36408 11.91 3.39879 12.4741 3.74148C13.0382 4.08416 13.4588 4.72027 13.4588 5.69344C13.4588 5.86926 13.5835 6.01932 13.7535 6.04957C14.8232 6.23211 15.5948 7.31393 15.5948 8.40243C15.5948 9.70934 14.5792 10.7497 12.9256 10.7497H4.38265C2.90452 10.7497 1.71342 9.54137 1.71342 8.04183C1.71342 6.773 2.57117 5.71471 3.72694 5.41796L3.72583 5.41684C3.8848 5.3754 3.99518 5.2287 3.99298 5.06183C3.97642 3.36743 5.32651 1.72132 7.22958 1.72132L7.22944 1.72232Z" fill="#ABB3CA" stroke="#ACB4CB" stroke-width="0.7"/>
</svg>
