<svg width="13" height="16" viewBox="0 0 13 16" fill="none" xmlns="http://www.w3.org/2000/svg">
<path d="M9.77133 7.20083C10.4475 6.42666 10.8702 5.43431 10.8702 4.32359C10.8702 1.95175 8.90883 0 6.50847 0C4.10811 0 2.14678 1.95192 2.14678 4.34075C2.14678 5.43431 2.56941 6.44375 3.24561 7.21799C1.30153 8.34506 0 10.4145 0 12.8034V15.3441C0 15.7141 0.304427 16 0.659029 16H12.3408C12.6961 16 12.9998 15.7141 12.9998 15.3441V12.7864C13.017 10.3975 11.6983 8.32803 9.77129 7.201L9.77133 7.20083ZM6.50847 1.31244C8.18181 1.31244 9.55139 2.67545 9.55139 4.34075C9.55139 6.00606 8.18181 7.36907 6.50847 7.36907C4.83513 7.36907 3.46555 6.00606 3.46555 4.34075C3.46555 2.67479 4.83513 1.31244 6.50847 1.31244ZM11.6982 14.6703H1.31877V12.7862C1.31877 10.7167 2.56948 8.9167 4.34445 8.10899C4.98698 8.47898 5.71403 8.68073 6.50847 8.68073C7.28638 8.68073 8.02993 8.46189 8.6725 8.10899C10.4475 8.91667 11.6982 10.7167 11.6982 12.8025V14.6703Z" fill="#ABB3CA"/>
</svg>
