<svg width="380" height="100" viewBox="0 0 380 100" fill="none" xmlns="http://www.w3.org/2000/svg">
<path d="M194.374 28.4896C194.206 24.5326 192.727 21.4337 189.941 19.1857C187.15 16.9277 183.48 15.7986 178.923 15.7986C174.35 15.7986 170.831 16.7396 168.364 18.6216C165.907 20.5036 164.684 23.2157 164.684 26.7547C164.684 28.6527 165.217 30.2836 166.294 31.6476C167.366 33.0016 169.289 33.9996 172.065 34.6376L189.879 38.7157C194.688 39.7617 198.248 41.7477 200.563 44.6747C202.873 47.6027 204.033 51.1717 204.033 55.3797C204.033 61.5577 201.765 66.2467 197.238 69.4507C192.722 72.6547 186.847 74.2596 179.612 74.2596C174.092 74.2596 169.744 73.5536 166.565 72.1476C163.387 70.7256 160.565 68.4787 158.097 65.3947C155.64 62.3157 154.417 58.0037 154.417 52.4527H162.299C162.299 57.0947 163.836 60.6907 166.92 63.2417C169.999 65.7817 174.201 67.0477 179.528 67.0477C184.671 67.0477 188.676 66.1437 191.55 64.3297C194.419 62.5047 195.857 59.9076 195.857 56.5306C195.857 53.4776 195 51.1986 193.285 49.6936C191.571 48.1786 188.225 46.8396 183.249 45.6796L169.805 42.5436C165.331 41.5296 161.991 39.7526 159.79 37.2116C157.584 34.6766 156.486 31.5616 156.486 27.8656C156.486 22.2626 158.373 17.6566 162.152 14.0446C165.926 10.4226 171.194 8.60864 177.959 8.60864C185.58 8.60864 191.465 10.1976 195.605 13.3756C199.755 16.5536 201.987 21.5926 202.296 28.4926H194.375L194.374 28.4896Z" fill="#545454"/>
<path d="M245.004 46.2617C244.612 41.3427 243.31 37.8568 241.094 35.8078C238.888 33.7588 235.961 32.7337 232.313 32.7337C228.618 32.7337 225.628 34.0408 223.343 36.6438C221.069 39.2358 219.862 42.4458 219.726 46.2608L245.004 46.2617ZM252.301 58.3468C251.449 63.0458 249.144 66.9347 245.38 70.0137C242.076 72.6167 237.718 73.9498 232.312 74.0068C225.956 73.9498 220.906 71.8688 217.175 67.7558C213.438 63.6468 211.572 58.1058 211.572 51.1328C211.572 43.1608 213.496 36.9568 217.343 32.5238C221.19 28.0808 226.532 25.8538 233.379 25.8538C239.51 25.8538 244.298 28.1478 247.743 32.7328C251.198 37.3218 252.929 43.8668 252.929 52.3658H219.727C219.727 57.1228 220.825 60.8017 223.031 63.4057C225.232 65.9977 228.541 67.2948 232.963 67.2948C236.068 67.2948 238.739 66.3648 240.971 64.4928C243.213 62.6108 244.447 60.5617 244.672 58.3457L252.301 58.3468Z" fill="#545454"/>
<path d="M269.597 72.6056H261.966V10.2576H269.597V72.6056Z" fill="#545454"/>
<path d="M288.723 72.6056H281.092V10.2576H288.723V72.6056Z" fill="#545454"/>
<path d="M300.219 18.9136V10.2576H307.85V18.9136H300.219ZM307.851 72.6056H300.22V27.1716H307.851V72.6056Z" fill="#545454"/>
<path d="M328.546 33.4867V72.6057H320.915V33.4867H314.685V27.1717H320.915V19.3727C320.915 15.9437 321.95 13.4247 324.03 11.8037C326.105 10.1727 329.012 9.35669 332.749 9.35669C334.014 9.35669 335.159 9.41369 336.178 9.52469V16.4037C335.269 16.2947 334.239 16.2357 333.084 16.2357C331.38 16.2357 330.199 16.6537 329.529 17.4907C328.871 18.3167 328.546 19.6597 328.546 21.5257V27.1707H336.177V33.4857L328.546 33.4867Z" fill="#545454"/>
<path d="M371.556 27.1726H379.878L363.632 71.7496C363.339 72.5446 363.052 73.2976 362.775 74.0076C360.318 80.5736 358.202 85.0736 356.419 87.5136C354.632 89.9656 351.746 91.1936 347.763 91.1936C345.673 91.1936 343.957 90.9636 342.62 90.5036V83.5406C344.068 84.0526 345.657 84.3146 347.387 84.3146C349.238 84.3146 350.596 83.7296 351.465 82.5586C352.327 81.3876 353.608 78.5076 355.312 73.9236L338.439 27.1736H347.033L359.223 64.1596H359.391L371.556 27.1726Z" fill="#545454"/>
<path d="M95.087 28.0821L84.651 -0.0229492H27.648L38.085 28.0821H95.087Z" fill="#A6DE8D"/>
<path d="M122.783 28.0821L112.347 -0.0229492H84.651L95.087 28.0821H122.783Z" fill="#BFE2B0"/>
<path d="M38.085 28.0821L27.648 -0.0229492H0.437988L10.874 28.0821L27.366 72.4941H54.576L38.085 28.0821Z" fill="#BFE2B0"/>
<path d="M38.085 28.082L54.576 72.494H111.579L95.087 28.082H38.085Z" fill="#97DD79"/>
<path d="M111.579 72.494H139.275L122.783 28.082H95.087L111.579 72.494Z" fill="#A6DE8D"/>
<path d="M139.275 72.4941H111.579H54.576L64.747 99.8841H121.75H149.445L139.275 72.4941Z" fill="#BFE2B0"/>
</svg>
