<svg width="19" height="14" viewBox="0 0 19 14" fill="none" xmlns="http://www.w3.org/2000/svg">
<path d="M6.00973 8.69214C5.76261 8.69214 5.55668 8.48621 5.55668 8.23909V8.05794C5.52386 7.06946 6.19121 6.64121 6.67712 6.32811C7.20417 5.99025 7.50084 5.76791 7.50084 5.16649C7.50084 4.40035 6.94064 3.9061 6.07571 3.9061C5.86978 3.91447 4.9061 4.02129 4.9061 5.15808C4.9061 5.4052 4.70017 5.61113 4.45305 5.61113C4.20593 5.61113 4 5.4052 4 5.15808C4 3.48583 5.35075 3.01639 6.05932 3H6.06769C7.44323 3 8.40691 3.88971 8.40691 5.16649C8.40691 6.29491 7.69033 6.75636 7.17132 7.09384C6.68545 7.40693 6.45474 7.57971 6.47115 8.03273V8.04914V8.23866C6.46278 8.49447 6.25685 8.69203 6.00973 8.69203L6.00973 8.69214Z" fill="#ABB3CA"/>
<path d="M6.56993 9.91135C6.56993 10.198 6.33762 10.4304 6.05092 10.4304C5.76454 10.4304 5.53223 10.198 5.53223 9.91135C5.53223 9.62465 5.76454 9.39233 6.05092 9.39233C6.33762 9.39233 6.56993 9.62465 6.56993 9.91135Z" fill="#ABB3CA"/>
<path fill-rule="evenodd" clip-rule="evenodd" d="M0 0.538715C0 0.241567 0.241562 0 0.538715 0H12.6742C12.9714 0 13.2129 0.241562 13.2129 0.538715V12.6742C13.2129 12.9714 12.9714 13.2129 12.6742 13.2129H0.538715C0.241567 13.2129 0 12.9714 0 12.6742V0.538715ZM1.34776 11.8652V1.34778H11.8651V11.8652H1.34776Z" fill="#ABB3CA"/>
<path d="M15.5397 0C15.2416 0 15 0.241562 15 0.538715C15 0.836821 15.2416 1.07839 15.5397 1.07839H16.4493V12.1346H15.5397C15.2416 12.1346 15 12.3762 15 12.6743C15 12.9715 15.2416 13.213 15.5397 13.213H18.4383C18.7364 13.213 18.9779 12.9715 18.9779 12.6743C18.9779 12.3762 18.7364 12.1346 18.4383 12.1346H17.5286V1.07839H18.4383C18.7364 1.07839 18.9779 0.836826 18.9779 0.538715C18.9779 0.241567 18.7364 0 18.4383 0H15.5397Z" fill="#ABB3CA"/>
<path fill-rule="evenodd" clip-rule="evenodd" d="M0 0.538715C0 0.241567 0.241562 0 0.538715 0H12.6742C12.9714 0 13.2129 0.241562 13.2129 0.538715V12.6742C13.2129 12.9714 12.9714 13.2129 12.6742 13.2129H0.538715C0.241567 13.2129 0 12.9714 0 12.6742V0.538715ZM1.34776 11.8652V1.34778H11.8651V11.8652H1.34776Z" fill="#ABB3CA"/>
<path d="M15.5397 0C15.2416 0 15 0.241562 15 0.538715C15 0.836821 15.2416 1.07839 15.5397 1.07839H16.4493V12.1346H15.5397C15.2416 12.1346 15 12.3762 15 12.6743C15 12.9715 15.2416 13.213 15.5397 13.213H18.4383C18.7364 13.213 18.9779 12.9715 18.9779 12.6743C18.9779 12.3762 18.7364 12.1346 18.4383 12.1346H17.5286V1.07839H18.4383C18.7364 1.07839 18.9779 0.836826 18.9779 0.538715C18.9779 0.241567 18.7364 0 18.4383 0H15.5397Z" fill="#ABB3CA"/>
</svg>
