<svg width="18" height="18" viewBox="0 0 18 18" fill="none" xmlns="http://www.w3.org/2000/svg">
<path d="M8.2575 15.015C11.9896 15.015 15.015 11.9896 15.015 8.2575C15.015 4.52544 11.9896 1.5 8.2575 1.5C4.52544 1.5 1.5 4.52544 1.5 8.2575C1.5 11.9896 4.52544 15.015 8.2575 15.015Z" fill="white"/>
<path d="M16.4901 14.2125C16.2426 13.755 15.7176 13.5 15.0126 13.5C14.4801 13.5 14.0226 13.7175 13.7526 14.0925C13.4826 14.4675 13.4226 14.97 13.5876 15.4725C13.9101 16.4475 14.4726 16.665 14.7801 16.7025C14.8251 16.71 14.8701 16.71 14.9226 16.71C15.2526 16.71 15.7626 16.5675 16.2576 15.825C16.6551 15.2475 16.7301 14.67 16.4901 14.2125Z" fill="white"/>
</svg>
