<svg width="19" height="19" viewBox="0 0 19 19" fill="none" xmlns="http://www.w3.org/2000/svg">
<mask id="path-1-inside-1_4033_2" fill="white">
<path d="M4.167 10.417C1.87207 10.417 0 12.2891 0 14.584C0 16.8789 1.87207 18.751 4.167 18.751C6.46192 18.751 8.334 16.8789 8.334 14.584C8.334 12.2891 6.46192 10.417 4.167 10.417ZM4.167 11.459C5.89942 11.459 7.292 12.8516 7.292 14.584C7.292 16.3164 5.89942 17.709 4.167 17.709C2.43457 17.709 1.042 16.3164 1.042 14.584C1.042 12.8516 2.43457 11.459 4.167 11.459Z"/>
</mask>
<path d="M4.167 10.417C1.87207 10.417 0 12.2891 0 14.584C0 16.8789 1.87207 18.751 4.167 18.751C6.46192 18.751 8.334 16.8789 8.334 14.584C8.334 12.2891 6.46192 10.417 4.167 10.417ZM4.167 11.459C5.89942 11.459 7.292 12.8516 7.292 14.584C7.292 16.3164 5.89942 17.709 4.167 17.709C2.43457 17.709 1.042 16.3164 1.042 14.584C1.042 12.8516 2.43457 11.459 4.167 11.459Z" fill="#ABB3CA"/>
<path d="M4.167 9.21699C1.20933 9.21699 -1.2 11.6263 -1.2 14.584H1.2C1.2 12.9518 2.53482 11.617 4.167 11.617V9.21699ZM-1.2 14.584C-1.2 17.5417 1.20933 19.951 4.167 19.951V17.551C2.53482 17.551 1.2 16.2162 1.2 14.584H-1.2ZM4.167 19.951C7.12467 19.951 9.534 17.5417 9.534 14.584H7.134C7.134 16.2162 5.79918 17.551 4.167 17.551V19.951ZM9.534 14.584C9.534 11.6263 7.12467 9.21699 4.167 9.21699V11.617C5.79918 11.617 7.134 12.9518 7.134 14.584H9.534ZM4.167 12.659C5.23668 12.659 6.092 13.5143 6.092 14.584H8.492C8.492 12.1888 6.56217 10.259 4.167 10.259V12.659ZM6.092 14.584C6.092 15.6537 5.23668 16.509 4.167 16.509V18.909C6.56217 18.909 8.492 16.9792 8.492 14.584H6.092ZM4.167 16.509C3.09732 16.509 2.242 15.6537 2.242 14.584H-0.158C-0.158 16.9792 1.77183 18.909 4.167 18.909V16.509ZM2.242 14.584C2.242 13.5143 3.09732 12.659 4.167 12.659V10.259C1.77183 10.259 -0.158 12.1888 -0.158 14.584H2.242Z" fill="#ACB4CB" mask="url(#path-1-inside-1_4033_2)"/>
<mask id="path-3-inside-2_4033_2" fill="white">
<path d="M10.9375 10.417C10.6494 10.417 10.417 10.6494 10.417 10.9375V18.2295C10.417 18.5166 10.6494 18.75 10.9375 18.75H18.2295C18.5166 18.75 18.75 18.5166 18.75 18.2295V10.9375C18.75 10.6494 18.5166 10.417 18.2295 10.417H10.9375ZM11.458 11.459H17.708V17.709H11.458V11.459Z"/>
</mask>
<path d="M10.9375 10.417C10.6494 10.417 10.417 10.6494 10.417 10.9375V18.2295C10.417 18.5166 10.6494 18.75 10.9375 18.75H18.2295C18.5166 18.75 18.75 18.5166 18.75 18.2295V10.9375C18.75 10.6494 18.5166 10.417 18.2295 10.417H10.9375ZM11.458 11.459H17.708V17.709H11.458V11.459Z" fill="#ABB3CA"/>
<path d="M11.458 11.459V10.259H10.258V11.459H11.458ZM17.708 11.459H18.908V10.259H17.708V11.459ZM17.708 17.709V18.909H18.908V17.709H17.708ZM11.458 17.709H10.258V18.909H11.458V17.709ZM10.9375 9.21699C9.98668 9.21699 9.21699 9.98667 9.21699 10.9375H11.617C11.617 11.3122 11.3122 11.617 10.9375 11.617V9.21699ZM9.21699 10.9375V18.2295H11.617V10.9375H9.21699ZM9.21699 18.2295C9.21699 19.1779 9.98521 19.95 10.9375 19.95V17.55C11.3136 17.55 11.617 17.8553 11.617 18.2295H9.21699ZM10.9375 19.95H18.2295V17.55H10.9375V19.95ZM18.2295 19.95C19.1793 19.95 19.95 19.1793 19.95 18.2295H17.55C17.55 17.8539 17.8539 17.55 18.2295 17.55V19.95ZM19.95 18.2295V10.9375H17.55V18.2295H19.95ZM19.95 10.9375C19.95 9.98522 19.1779 9.21699 18.2295 9.21699V11.617C17.8553 11.617 17.55 11.3136 17.55 10.9375H19.95ZM18.2295 9.21699H10.9375V11.617H18.2295V9.21699ZM11.458 12.659H17.708V10.259H11.458V12.659ZM16.508 11.459V17.709H18.908V11.459H16.508ZM17.708 16.509H11.458V18.909H17.708V16.509ZM12.658 17.709V11.459H10.258V17.709H12.658Z" fill="#ACB4CB" mask="url(#path-3-inside-2_4033_2)"/>
<mask id="path-5-inside-3_4033_2" fill="white">
<path d="M9.37497 0C9.19821 0 9.03317 0.0908201 8.93747 0.240235L4.24897 7.53224C4.14643 7.69142 4.1396 7.89551 4.23042 8.06153C4.32124 8.22853 4.49604 8.33301 4.68647 8.33301H14.0635C14.2539 8.33301 14.4287 8.22852 14.5195 8.06153C14.6103 7.89552 14.6035 7.69141 14.501 7.53224L9.81246 0.240235C9.71676 0.0908201 9.55172 0 9.37497 0ZM9.37497 1.48145L13.1112 7.29195H5.63847L9.37497 1.48145Z"/>
</mask>
<path d="M9.37497 0C9.19821 0 9.03317 0.0908201 8.93747 0.240235L4.24897 7.53224C4.14643 7.69142 4.1396 7.89551 4.23042 8.06153C4.32124 8.22853 4.49604 8.33301 4.68647 8.33301H14.0635C14.2539 8.33301 14.4287 8.22852 14.5195 8.06153C14.6103 7.89552 14.6035 7.69141 14.501 7.53224L9.81246 0.240235C9.71676 0.0908201 9.55172 0 9.37497 0ZM9.37497 1.48145L13.1112 7.29195H5.63847L9.37497 1.48145Z" fill="#ABB3CA"/>
<path d="M8.93747 0.240235L9.94684 0.889222L9.94797 0.887456L8.93747 0.240235ZM4.24897 7.53224L5.25778 8.18209L5.25833 8.18122L4.24897 7.53224ZM4.23042 8.06153L5.2846 7.48821L5.28319 7.48564L4.23042 8.06153ZM14.5195 8.06153L13.4667 7.48561L13.4654 7.48816L14.5195 8.06153ZM14.501 7.53224L13.4916 8.18122L13.4922 8.1821L14.501 7.53224ZM9.81246 0.240235L8.80197 0.887469L8.8031 0.889221L9.81246 0.240235ZM9.37497 1.48145L10.3843 0.832427L9.375 -0.737216L8.36565 0.832396L9.37497 1.48145ZM13.1112 7.29195V8.49195H15.3095L14.1206 6.64293L13.1112 7.29195ZM5.63847 7.29195L4.62915 6.6429L3.4401 8.49195H5.63847V7.29195ZM9.37497 -1.2C8.78583 -1.2 8.24147 -0.898005 7.92697 -0.406986L9.94797 0.887456C9.82487 1.07964 9.61059 1.2 9.37497 1.2V-1.2ZM7.92811 -0.408751L3.23961 6.88325L5.25833 8.18122L9.94683 0.889221L7.92811 -0.408751ZM3.24016 6.88238C2.89823 7.41319 2.8769 8.08767 3.17764 8.63743L5.28319 7.48564C5.40229 7.70335 5.39463 7.96964 5.25778 8.18209L3.24016 6.88238ZM3.17623 8.63486C3.47614 9.1863 4.05434 9.53301 4.68647 9.53301V7.13301C4.93774 7.13301 5.16633 7.27076 5.2846 7.48821L3.17623 8.63486ZM4.68647 9.53301H14.0635V7.13301H4.68647V9.53301ZM14.0635 9.53301C14.6957 9.53301 15.2738 9.18624 15.5737 8.63491L13.4654 7.48816C13.5836 7.2708 13.8121 7.13301 14.0635 7.13301V9.53301ZM15.5723 8.63746C15.873 8.08769 15.8517 7.41317 15.5098 6.88237L13.4922 8.1821C13.3553 7.96965 13.3476 7.70335 13.4668 7.48561L15.5723 8.63746ZM15.5103 6.88325L10.8218 -0.408751L8.8031 0.889221L13.4916 8.18122L15.5103 6.88325ZM10.8229 -0.406998C10.5085 -0.897985 9.96412 -1.2 9.37497 -1.2V1.2C9.13932 1.2 8.92505 1.07963 8.80197 0.887468L10.8229 -0.406998ZM8.36563 2.13047L12.1019 7.94097L14.1206 6.64293L10.3843 0.832427L8.36563 2.13047ZM13.1112 6.09195H5.63847V8.49195H13.1112V6.09195ZM6.64779 7.941L10.3843 2.1305L8.36565 0.832396L4.62915 6.6429L6.64779 7.941Z" fill="#ACB4CB" mask="url(#path-5-inside-3_4033_2)"/>
</svg>
