<svg width="16" height="16" viewBox="0 0 16 16" fill="none" xmlns="http://www.w3.org/2000/svg">
<path d="M2.00635 7.48145V10.4748C2.00635 13.4681 3.20635 14.6681 6.19968 14.6681H9.79301C12.7863 14.6681 13.9863 13.4681 13.9863 10.4748V7.48145" stroke="#ACB4CB" stroke-width="1.2" stroke-linecap="round" stroke-linejoin="round"/>
<path d="M8.00146 7.99967C9.22146 7.99967 10.1215 7.00634 10.0015 5.78634L9.56146 1.33301H6.44812L6.00146 5.78634C5.88146 7.00634 6.78146 7.99967 8.00146 7.99967Z" stroke="#ACB4CB" stroke-width="1.2" stroke-linecap="round" stroke-linejoin="round"/>
<path d="M12.2078 7.99967C13.5544 7.99967 14.5411 6.90634 14.4078 5.56634L14.2211 3.73301C13.9811 1.99967 13.3144 1.33301 11.5678 1.33301H9.53442L10.0011 6.00634C10.1144 7.10634 11.1078 7.99967 12.2078 7.99967Z" stroke="#ACB4CB" stroke-width="1.2" stroke-linecap="round" stroke-linejoin="round"/>
<path d="M3.76212 7.99967C4.86212 7.99967 5.85545 7.10634 5.96212 6.00634L6.10879 4.53301L6.42879 1.33301H4.39545C2.64879 1.33301 1.98212 1.99967 1.74212 3.73301L1.56212 5.56634C1.42879 6.90634 2.41545 7.99967 3.76212 7.99967Z" stroke="#ACB4CB" stroke-width="1.2" stroke-linecap="round" stroke-linejoin="round"/>
<path d="M8.00114 11.333C6.88781 11.333 6.33447 11.8863 6.33447 12.9997V14.6663H9.66781V12.9997C9.66781 11.8863 9.11447 11.333 8.00114 11.333Z" stroke="#ACB4CB" stroke-width="1.2" stroke-linecap="round" stroke-linejoin="round"/>
</svg>
