<svg width="7" height="15" viewBox="0 0 7 15" fill="none" xmlns="http://www.w3.org/2000/svg">
<path d="M3.49998 2.42586C4.14051 2.42586 4.71733 2.1303 4.96199 1.67717C5.2075 1.22404 5.07158 0.702559 4.6188 0.355562C4.16686 0.00856457 3.48556 -0.0956013 2.89429 0.0925472C2.30303 0.280046 1.91736 0.722743 1.91736 1.21299C1.91736 1.5346 2.08386 1.84318 2.38034 2.07105C2.67767 2.29826 3.08034 2.42586 3.49998 2.42586Z" fill="#ABB2C9"/>
<path d="M0.700004 13.5306C0.287152 13.627 0.00341434 13.918 0 14.2494C0 14.4486 0.102791 14.6393 0.287131 14.7799C0.470624 14.9212 0.719533 15 0.979479 15H6.02052C6.28047 15 6.52936 14.9212 6.71287 14.7799C6.89721 14.6393 7 14.4486 7 14.2494C6.9966 13.918 6.71287 13.627 6.29999 13.5306C5.75207 13.3958 5.08264 13.0013 5.08264 11.8763V4.48771C5.08264 4.43433 5.05546 4.38354 5.00619 4.34643C4.95777 4.30868 4.89151 4.28784 4.82184 4.28784H0.979518C0.438379 4.28784 3.8991e-05 4.62377 3.8991e-05 5.03849C0.00343702 5.36922 0.287169 5.66023 0.700043 5.75723C1.24797 5.89199 1.9174 6.28653 1.9174 7.41152V11.8757C1.9174 13.0013 1.24795 13.3958 0.700004 13.5306Z" fill="#ABB2C9"/>
</svg>
